<?xml version="1.0" encoding="utf-8" standalone="no"?>
<!DOCTYPE svg PUBLIC "-//W3C//DTD SVG 1.1//EN"
  "http://www.w3.org/Graphics/SVG/1.1/DTD/svg11.dtd">
<svg xmlns:xlink="http://www.w3.org/1999/xlink" width="1152pt" height="648pt" viewBox="0 0 1152 648" xmlns="http://www.w3.org/2000/svg" version="1.1">
 <metadata>
  <rdf:RDF xmlns:dc="http://purl.org/dc/elements/1.1/" xmlns:cc="http://creativecommons.org/ns#" xmlns:rdf="http://www.w3.org/1999/02/22-rdf-syntax-ns#">
   <cc:Work>
    <dc:type rdf:resource="http://purl.org/dc/dcmitype/StillImage"/>
    <dc:date>2026-09-10T17:39:29.878597</dc:date>
    <dc:format>image/svg+xml</dc:format>
    <dc:creator>
     <cc:Agent>
      <dc:title>Matplotlib v3.11.1, https://matplotlib.org/</dc:title>
     </cc:Agent>
    </dc:creator>
   </cc:Work>
  </rdf:RDF>
 </metadata>
 <defs>
  <style type="text/css">*{stroke-linejoin: round; stroke-linecap: butt}</style>
 </defs>
 <g id="figure_1">
  <g id="patch_1">
   <path d="M 0 648
L 1152 648
L 1152 0
L 0 0
z
" style="fill: #ffffff"/>
  </g>
  <g id="axes_1">
   <g id="patch_2">
    <path d="M 48.96 39.6
L 1103.04 39.6
Q 1112.4 39.6 1112.4 48.96
L 1112.4 336.24
Q 1112.4 345.6 1103.04 345.6
L 48.96 345.6
Q 39.6 345.6 39.6 336.24
L 39.6 48.96
Q 39.6 39.6 48.96 39.6
z
" clip-path="url(#p2bc79686d1)" style="fill: #faf9fc; stroke-dasharray: 9,6; stroke-dashoffset: 0; stroke: #a7a0b6; stroke-width: 1.5; stroke-linejoin: miter"/>
   </g>
   <g id="patch_3">
    <path d="M 75.6 126
L 248.4 126
Q 255.6 126 255.6 133.2
L 255.6 237.6
Q 255.6 244.8 248.4 244.8
L 75.6 244.8
Q 68.4 244.8 68.4 237.6
L 68.4 133.2
Q 68.4 126 75.6 126
z
" clip-path="url(#p2bc79686d1)" style="fill: #eaf0f8; stroke: #496e9d; stroke-width: 1.8; stroke-linejoin: miter"/>
   </g>
   <g id="patch_4">
    <path d="M 324 126
L 540 126
Q 547.2 126 547.2 133.2
L 547.2 237.6
Q 547.2 244.8 540 244.8
L 324 244.8
Q 316.8 244.8 316.8 237.6
L 316.8 133.2
Q 316.8 126 324 126
z
" clip-path="url(#p2bc79686d1)" style="fill: #eaf0f8; stroke: #496e9d; stroke-width: 1.8; stroke-linejoin: miter"/>
   </g>
   <g id="patch_5">
    <path d="M 615.6 126
L 810 126
Q 817.2 126 817.2 133.2
L 817.2 237.6
Q 817.2 244.8 810 244.8
L 615.6 244.8
Q 608.4 244.8 608.4 237.6
L 608.4 133.2
Q 608.4 126 615.6 126
z
" clip-path="url(#p2bc79686d1)" style="fill: #eaf0f8; stroke: #496e9d; stroke-width: 1.8; stroke-linejoin: miter"/>
   </g>
   <g id="patch_6">
    <path d="M 885.6 126
L 1076.4 126
Q 1083.6 126 1083.6 133.2
L 1083.6 237.6
Q 1083.6 244.8 1076.4 244.8
L 885.6 244.8
Q 878.4 244.8 878.4 237.6
L 878.4 133.2
Q 878.4 126 885.6 126
z
" clip-path="url(#p2bc79686d1)" style="fill: #eaf0f8; stroke: #496e9d; stroke-width: 1.8; stroke-linejoin: miter"/>
   </g>
   <g id="patch_7">
    <path d="M 255.6 185.76
Q 284.199719 185.76 310.451567 185.76
" clip-path="url(#p2bc79686d1)" style="fill: none; stroke: #6d88ab; stroke-width: 2.1; stroke-linecap: round"/>
    <path d="M 302.451567 181.76
L 310.451567 185.76
L 302.451567 189.76
z
" clip-path="url(#p2bc79686d1)" style="fill: #6d88ab; stroke: #6d88ab; stroke-width: 2.1; stroke-linecap: round"/>
   </g>
   <g id="patch_8">
    <path d="M 547.2 185.76
Q 575.799719 185.76 602.051567 185.76
" clip-path="url(#p2bc79686d1)" style="fill: none; stroke: #6d88ab; stroke-width: 2.1; stroke-linecap: round"/>
    <path d="M 594.051567 181.76
L 602.051567 185.76
L 594.051567 189.76
z
" clip-path="url(#p2bc79686d1)" style="fill: #6d88ab; stroke: #6d88ab; stroke-width: 2.1; stroke-linecap: round"/>
   </g>
   <g id="patch_9">
    <path d="M 817.2 185.76
Q 845.799719 185.76 872.051567 185.76
" clip-path="url(#p2bc79686d1)" style="fill: none; stroke: #6d88ab; stroke-width: 2.1; stroke-linecap: round"/>
    <path d="M 864.051567 181.76
L 872.051567 185.76
L 864.051567 189.76
z
" clip-path="url(#p2bc79686d1)" style="fill: #6d88ab; stroke: #6d88ab; stroke-width: 2.1; stroke-linecap: round"/>
   </g>
   <g id="patch_10">
    <path d="M 432 303.84
Q 432 276.321753 432 251.151377
" clip-path="url(#p2bc79686d1)" style="fill: none; stroke-dasharray: 10.5,8.4; stroke-dashoffset: 0; stroke: #496e9d; stroke-width: 2.1; stroke-linecap: round"/>
    <path d="M 428 259.151377
L 432 251.151377
L 436 259.151377
z
" clip-path="url(#p2bc79686d1)" style="fill: #496e9d; stroke-dasharray: 10.5,8.4; stroke-dashoffset: 0; stroke: #496e9d; stroke-width: 2.1; stroke-linecap: round"/>
   </g>
   <g id="patch_11">
    <path d="M 48.96 385.2
L 1103.04 385.2
Q 1112.4 385.2 1112.4 394.56
L 1112.4 563.04
Q 1112.4 572.4 1103.04 572.4
L 48.96 572.4
Q 39.6 572.4 39.6 563.04
L 39.6 394.56
Q 39.6 385.2 48.96 385.2
z
" clip-path="url(#p2bc79686d1)" style="fill: #faf9fc; stroke-dasharray: 9,6; stroke-dashoffset: 0; stroke: #a7a0b6; stroke-width: 1.5; stroke-linejoin: miter"/>
   </g>
   <g id="patch_12">
    <path d="M 75.6 450
L 327.6 450
Q 334.8 450 334.8 457.2
L 334.8 532.8
Q 334.8 540 327.6 540
L 75.6 540
Q 68.4 540 68.4 532.8
L 68.4 457.2
Q 68.4 450 75.6 450
z
" clip-path="url(#p2bc79686d1)" style="fill: #eaf0f8; stroke: #496e9d; stroke-width: 1.8; stroke-linejoin: miter"/>
   </g>
   <g id="patch_13">
    <path d="M 421.2 450
L 669.6 450
Q 676.8 450 676.8 457.2
L 676.8 532.8
Q 676.8 540 669.6 540
L 421.2 540
Q 414 540 414 532.8
L 414 457.2
Q 414 450 421.2 450
z
" clip-path="url(#p2bc79686d1)" style="fill: #eaf0f8; stroke: #496e9d; stroke-width: 1.8; stroke-linejoin: miter"/>
   </g>
   <g id="patch_14">
    <path d="M 763.2 450
L 1076.4 450
Q 1083.6 450 1083.6 457.2
L 1083.6 532.8
Q 1083.6 540 1076.4 540
L 763.2 540
Q 756 540 756 532.8
L 756 457.2
Q 756 450 763.2 450
z
" clip-path="url(#p2bc79686d1)" style="fill: #f4f3f5; stroke-dasharray: 9,7.2; stroke-dashoffset: 0; stroke: #9b9ba4; stroke-width: 1.8; stroke-linejoin: miter"/>
   </g>
   <g id="patch_15">
    <path d="M 360 466.56
Q 385.001038 466.56 407.654204 466.56
" clip-path="url(#p2bc79686d1)" style="fill: none; stroke: #6d88ab; stroke-width: 2.1; stroke-linecap: round"/>
    <path d="M 399.654204 462.56
L 407.654204 466.56
L 399.654204 470.56
z
" clip-path="url(#p2bc79686d1)" style="fill: #6d88ab; stroke: #6d88ab; stroke-width: 2.1; stroke-linecap: round"/>
   </g>
   <g id="patch_16">
    <path d="M 414 495.36
Q 376.398853 495.36 341.145576 495.36
" clip-path="url(#p2bc79686d1)" style="fill: none; stroke: #6d88ab; stroke-width: 2.1; stroke-linecap: round"/>
    <path d="M 349.145576 499.36
L 341.145576 495.36
L 349.145576 491.36
z
" clip-path="url(#p2bc79686d1)" style="fill: #6d88ab; stroke: #6d88ab; stroke-width: 2.1; stroke-linecap: round"/>
   </g>
   <g id="patch_17">
    <path d="M 676.8 495.36
Q 714.401147 495.36 749.654424 495.36
" clip-path="url(#p2bc79686d1)" style="fill: none; stroke-dasharray: 10.5,8.4; stroke-dashoffset: 0; stroke: #9b9ba4; stroke-width: 2.1; stroke-linecap: round"/>
    <path d="M 741.654424 491.36
L 749.654424 495.36
L 741.654424 499.36
z
" clip-path="url(#p2bc79686d1)" style="fill: #9b9ba4; stroke-dasharray: 10.5,8.4; stroke-dashoffset: 0; stroke: #9b9ba4; stroke-width: 2.1; stroke-linecap: round"/>
   </g>
   <g id="patch_18">
    <path d="M 18 185.76
Q 41.19895 185.76 62.050029 185.76
" clip-path="url(#p2bc79686d1)" style="fill: none; stroke-dasharray: 10.5,8.4; stroke-dashoffset: 0; stroke: #9b9ba4; stroke-width: 2.1; stroke-linecap: round"/>
    <path d="M 54.050029 181.76
L 62.050029 185.76
L 54.050029 189.76
z
" clip-path="url(#p2bc79686d1)" style="fill: #9b9ba4; stroke-dasharray: 10.5,8.4; stroke-dashoffset: 0; stroke: #9b9ba4; stroke-width: 2.1; stroke-linecap: round"/>
   </g>
   <g id="line2d_1">
    <path d="M 979.2 244.8
L 979.2 303.84
" clip-path="url(#p2bc79686d1)" style="fill: none; stroke-dasharray: 10.5,8.4; stroke-dashoffset: 0; stroke: #496e9d; stroke-width: 2.1"/>
   </g>
   <g id="line2d_2">
    <path d="M 979.2 303.84
L 432 303.84
" clip-path="url(#p2bc79686d1)" style="fill: none; stroke-dasharray: 10.5,8.4; stroke-dashoffset: 0; stroke: #496e9d; stroke-width: 2.1"/>
   </g>
   <g id="line2d_3">
    <path d="M 1044 244.8
L 1044 363.6
" clip-path="url(#p2bc79686d1)" style="fill: none; stroke: #6d88ab; stroke-width: 2.1; stroke-linecap: square"/>
   </g>
   <g id="line2d_4">
    <path d="M 1044 363.6
L 360 363.6
" clip-path="url(#p2bc79686d1)" style="fill: none; stroke: #6d88ab; stroke-width: 2.1; stroke-linecap: square"/>
   </g>
   <g id="line2d_5">
    <path d="M 360 363.6
L 360 466.56
" clip-path="url(#p2bc79686d1)" style="fill: none; stroke: #6d88ab; stroke-width: 2.1; stroke-linecap: square"/>
   </g>
   <g id="line2d_6">
    <path d="M 921.6 540
L 921.6 604.8
" clip-path="url(#p2bc79686d1)" style="fill: none; stroke-dasharray: 10.5,8.4; stroke-dashoffset: 0; stroke: #9b9ba4; stroke-width: 2.1"/>
   </g>
   <g id="line2d_7">
    <path d="M 921.6 604.8
L 18 604.8
" clip-path="url(#p2bc79686d1)" style="fill: none; stroke-dasharray: 10.5,8.4; stroke-dashoffset: 0; stroke: #9b9ba4; stroke-width: 2.1"/>
   </g>
   <g id="line2d_8">
    <path d="M 18 604.8
L 18 185.76
" clip-path="url(#p2bc79686d1)" style="fill: none; stroke-dasharray: 10.5,8.4; stroke-dashoffset: 0; stroke: #9b9ba4; stroke-width: 2.1"/>
   </g>
   <g id="text_1">
    <text style="font-weight: 700; font-size: 24px; font-family: 'DejaVu Serif', serif; text-anchor: middle; fill: #203247" x="576" y="73.411875" transform="rotate(-0 576 73.411875)">A. Fixed-task design search</text>
   </g>
   <g id="text_2">
    <text style="font-size: 23px; font-family: 'DejaVu Serif', serif; text-anchor: middle; fill: #203247" x="162" y="185.658687" transform="rotate(-0 162 185.658687)">Task + seed</text>
   </g>
   <g id="text_3">
    <text style="font-size: 18px; font-family: 'DejaVu Serif', serif; text-anchor: middle; fill: #657486" x="162" y="228.382875" transform="rotate(-0 162 228.382875)">M03 skipped</text>
   </g>
   <g id="text_4">
    <text style="font-size: 23px; font-family: 'DejaVu Serif', serif; fill: #203247" transform="translate(329.367891 168.892047)">Decode geometry</text>
    <text style="font-size: 23px; font-family: 'DejaVu Serif', serif; fill: #203247" transform="translate(361.982969 200.033687)">&amp; hardware</text>
   </g>
   <g id="text_5">
    <text style="font-size: 18px; font-family: 'DejaVu Serif', serif; text-anchor: middle; fill: #657486" x="432" y="229.260375" transform="rotate(-0 432 229.260375)">M04 / M09</text>
   </g>
   <g id="text_6">
    <text style="font-size: 23px; font-family: 'DejaVu Serif', serif; fill: #203247" transform="translate(667.189922 168.892047)">Analyze</text>
    <text style="font-size: 23px; font-family: 'DejaVu Serif', serif; fill: #203247" transform="translate(642.305 197.642047)">fixed design</text>
   </g>
   <g id="text_7">
    <text style="font-size: 18px; font-family: 'DejaVu Serif', serif; text-anchor: middle; fill: #657486" x="712.8" y="229.260375" transform="rotate(-0 712.8 229.260375)">C01 / M05–M10</text>
   </g>
   <g id="text_8">
    <text style="font-size: 23px; font-family: 'DejaVu Serif', serif; fill: #203247" transform="translate(940.115703 171.283687)">Search</text>
    <text style="font-size: 23px; font-family: 'DejaVu Serif', serif; fill: #203247" transform="translate(916.317891 197.602516)">&amp; compare</text>
   </g>
   <g id="text_9">
    <text style="font-size: 18px; font-family: 'DejaVu Serif', serif; text-anchor: middle; fill: #657486" x="981" y="229.260375" transform="rotate(-0 981 229.260375)">O01 / M11</text>
   </g>
   <g id="text_10">
    <text style="font-size: 18px; font-family: 'DejaVu Serif', serif; text-anchor: middle; fill: #496e9d" x="694.8" y="287.078906" transform="rotate(-0 694.8 287.078906)">update design x</text>
   </g>
   <g id="text_11">
    <text style="font-weight: 700; font-size: 24px; font-family: 'DejaVu Serif', serif; text-anchor: middle; fill: #203247" x="576" y="421.5075" transform="rotate(-0 576 421.5075)">B. Candidate and evidence</text>
   </g>
   <g id="text_12">
    <text style="font-size: 23px; font-family: 'DejaVu Serif', serif; fill: #203247" transform="translate(116.3275 486.971563)">Model support</text>
    <text style="font-size: 23px; font-family: 'DejaVu Serif', serif; fill: #203247" transform="translate(80.282187 515.558047)">+ tightest constraint</text>
   </g>
   <g id="text_13">
    <text style="font-size: 23px; font-family: 'DejaVu Serif', serif; fill: #203247" transform="translate(433.956016 489.199687)">Selected candidate</text>
    <text style="font-size: 23px; font-family: 'DejaVu Serif', serif; fill: #203247" transform="translate(457.083594 517.949687)">+ search limits</text>
   </g>
   <g id="text_14">
    <text style="font-size: 23px; font-family: 'DejaVu Serif', serif; text-anchor: middle; fill: #203247" x="919.8" y="495.046562" transform="rotate(-0 919.8 495.046562)">Independent check</text>
   </g>
   <g id="text_15">
    <text style="font-size: 18px; font-family: 'DejaVu Serif', serif; text-anchor: middle; fill: #657486" x="919.8" y="528.638906" transform="rotate(-0 919.8 528.638906)">No CFD / FEA evidence yet</text>
   </g>
   <g id="text_16">
    <text style="font-size: 18px; font-family: 'DejaVu Serif', serif; text-anchor: middle; fill: #9b9ba4" x="504" y="590.198906" transform="rotate(-0 504 590.198906)">if evidence disagrees: revise models / problem</text>
   </g>
   <g id="text_17">
    <text style="font-size: 17px; font-family: 'DejaVu Serif', serif; text-anchor: middle; fill: #657486" x="576" y="638.170078" transform="rotate(-0 576 638.170078)">Solid: executed low-order chain    Dashed blue: numerical update    Dashed gray: required evidence</text>
   </g>
  </g>
 </g>
 <defs>
  <clipPath id="p2bc79686d1">
   <rect x="0" y="0" width="1152" height="648"/>
  </clipPath>
 </defs>
</svg>
